=!HD DESI ROCKER RELEASES!=












 

Release Title: Tinker Bell And The Lost Treasure[2009][720p-Brrip][Hindi]~BONIIN
Release Date: 4 December 2009 (India)
Release Length: 1h 18mn
 

Storyline : Tinker Bell journey far North of Never Land to patch things up with her friend Terence 
            and restore a Pixie Dust Tree.

Tagline : Adventure beyond Pixie Hollow

Cast:


 
  

 Kristin Chenoweth ...  Rosetta (voice) 

 Pamela Adlon ...  Vidia (voice) 

 Lucy Liu ...  Silvermist (voice) 

 Raven-Symoné ...  Iridessa (voice) 

 John Di Maggio ...  Minister of Autumn 

 Jesse McCartney ...  Terence (voice) 

 Anjelica Huston ...  Queen Clarion (voice) 

 Grey DeLisle ...  Lyria / Viola / Narrator (voice) 

 Jane Horrocks ...  Fairy Mary (voice)
 
 Jeff Bennett ...  Clank / Short Troll / Fairy Gary (voice)
 
 Rob Paulsen ...  Bobble / Tall Troll / Owl (voice) 

 Roger Craig Smith ...  Bolt / Stone (voice) 

 Bob Bergen ...  Bugs / Creatures (voice)
 
 Thom Adcox-Hernandez ...  Flint (voice)
 
 Angela Bartys ...  Fawn 

 Eliza Pollack Zebert ...  Blaze (voice) 

 Julie Garnye ...  Lyria (singing voice) 

 Allison Roth ...  French Fairy 




 





General INFO:

Title............................: Tinker Bell And The Lost Treasure[2009][720p-Brrip][Hindi]~BONIIN
Genre............................: Animation | Adventure | Family | Fantasy
Directer.........................: Klay Hall
Writer...........................: Klay Hall & Evan Spiliotopoulos
IMDB.............................: http://www.imdb.com/title/tt1216516/
year.............................: 4 December 2009 (India)
User Rating......................: 6.8/10   554 votes » 
Awards...........................: 1 Nominated  
VIDEO Source.....................: Tinker Bell And The Lost Treasure 1080p Disney-Bluray x264                                                  
File size........................: 1.39 GiB
Run time.........................: 1h 17mn
Languages........................: Hindi
Subtittle........................: None
Ripper...........................: BONIIN[BOW]



Video

ID                               : 2
Format                           : AVC
Format/Info                      : Advanced Video Codec
Format profile                   : High@L4.1
Format settings, CABAC           : Yes
Format settings, ReFrames        : 3 frames
Muxing mode                      : Container profile=Unknown@4.1
Codec ID                         : V_MPEG4/ISO/AVC
Duration                         : 1h 17mn
Bit rate                         : 2 265 Kbps
Nominal bit rate                 : 2 230 Kbps
Overall bit rate                 : 2 572 Kbps
Width                            : 1 280 pixels
Height                           : 720 pixels
Display aspect ratio             : 16:9
Frame rate                       : 25.000 fps
Original frame rate              : 23.976 fps
Resolution                       : 8 bits
Colorimetry                      : 4:2:0
Scan type                        : Progressive
Bits/(Pixel*Frame)               : 0.098
Stream size                      : 1.22 GiB (88%)
Title                            : Ripper~Boniin
Writing library                  : x264 core 79 r1342_DANGEROUS
Encoding settings                : cabac=1 / ref=4 / deblock
Encoded date                     : UTC 2010-07-21 08:11:05
Writing application              : mkvmerge v3.3.0 ('Language') built on Mar 24 2010 14:59:24
Writing library                  : libebml v0.8.0 + libmatroska v0.9.0





Audio
ID                               : 1
Format                           : AC-3
Format/Info                      : Audio Coding 3
Codec ID                         : A_AC3
Duration                         : 1h 17mn
Bit rate mode                    : Constant
Bit rate                         : 256 Kbps
Channel(s)                       : 2 channels
Channel positions                : Front: L R
Sampling rate                    : 48.0 KHz
Stream size                      : 142 MiB (12%)
Title                            : Ripper~Boniin
Language                         : Hindi






screen shots: 
http://img257.imageshack.us/img257/5513/vlcsnap2010072114h04m25.png 
http://img839.imageshack.us/img839/4899/vlcsnap2010072114h04m54.png 
http://img191.imageshack.us/img191/7956/vlcsnap2010072114h05m20.png 
http://img443.imageshack.us/img443/4017/vlcsnap2010072114h30m40.png 
http://img97.imageshack.us/img97/2923/vlcsnap2010072114h30m49.png 
http://img375.imageshack.us/img375/8808/vlcsnap2010072114h35m35.png 
http://img715.imageshack.us/img715/8341/vlcsnap2010072114h07m10.png 
http://img810.imageshack.us/img810/5981/vlcsnap2010072114h08m13.png